<?xml version="1.0" encoding="UTF-8" standalone="no"?>
<svg
   xmlns:dc="http://purl.org/dc/elements/1.1/"
   xmlns:cc="http://creativecommons.org/ns#"
   xmlns:rdf="http://www.w3.org/1999/02/22-rdf-syntax-ns#"
   xmlns:svg="http://www.w3.org/2000/svg"
   xmlns="http://www.w3.org/2000/svg"
   xmlns:xlink="http://www.w3.org/1999/xlink"
   xmlns:sodipodi="http://sodipodi.sourceforge.net/DTD/sodipodi-0.dtd"
   xmlns:inkscape="http://www.inkscape.org/namespaces/inkscape"
   width="720"
   height="1080"
   viewBox="0 0 190.5 285.75001"
   version="1.1"
   id="svg8"
   inkscape:version="1.0.1 (3bc2e813f5, 2020-09-07)"
   sodipodi:docname="purse.svg">
  <defs
     id="defs2" />
  <sodipodi:namedview
     id="base"
     pagecolor="#ffffff"
     bordercolor="#666666"
     borderopacity="1.0"
     inkscape:pageopacity="0.0"
     inkscape:pageshadow="2"
     inkscape:zoom="0.35"
     inkscape:cx="284.89499"
     inkscape:cy="418.30882"
     inkscape:document-units="mm"
     inkscape:current-layer="layer1"
     inkscape:document-rotation="0"
     showgrid="false"
     inkscape:window-width="1848"
     inkscape:window-height="1016"
     inkscape:window-x="72"
     inkscape:window-y="27"
     inkscape:window-maximized="1"
     units="px"
     inkscape:snap-bbox="true"
     inkscape:snap-page="true"
     showguides="true"
     inkscape:guide-bbox="true"
     inkscape:snap-bbox-edge-midpoints="true" />
  <metadata
     id="metadata5">
    <rdf:RDF>
      <cc:Work
         rdf:about="">
        <dc:format>image/svg+xml</dc:format>
        <dc:type
           rdf:resource="http://purl.org/dc/dcmitype/StillImage" />
        <dc:title />
      </cc:Work>
    </rdf:RDF>
  </metadata>
  <g
     inkscape:label="backgrounds"
     inkscape:groupmode="layer"
     id="layer1">
    <rect
       style="color:#000000;overflow:visible;fill:#d58f5a;fill-opacity:1;stroke:none;stroke-width:2.64584"
       id="rect851"
       width="26.458334"
       height="13.229167"
       x="-63.586388"
       y="18.354519" />
    <rect
       style="color:#000000;overflow:visible;fill:#502d14;fill-opacity:1;stroke:none;stroke-width:2.64583"
       id="rect851-3"
       width="26.458334"
       height="13.229167"
       x="-37.128052"
       y="18.354521" />
    <rect
       style="color:#000000;overflow:visible;fill:#ffffff;fill-opacity:1;stroke:#000000;stroke-width:0.2;stroke-miterlimit:4;stroke-dasharray:none;stroke-opacity:1"
       id="rect868"
       width="26.458334"
       height="13.229167"
       x="-37.128052"
       y="44.912853" />
    <rect
       style="color:#000000;overflow:visible;fill:#f0f00a;fill-opacity:1;stroke:none;stroke-width:2.64584"
       id="rect870"
       width="26.458334"
       height="13.229167"
       x="-63.586388"
       y="31.583687" />
    <rect
       style="color:#000000;overflow:visible;fill:#f0800a;fill-opacity:1;stroke:none;stroke-width:2.64583"
       id="rect872"
       width="26.458334"
       height="13.229167"
       x="-37.128052"
       y="31.583687" />
    <rect
       style="color:#000000;overflow:visible;fill:#414141;fill-opacity:1;stroke:none;stroke-width:2.64583"
       id="rect874"
       width="26.458334"
       height="13.229167"
       x="-37.128052"
       y="5.1253543" />
    <rect
       style="color:#000000;overflow:visible;fill:#502d14;fill-opacity:1;stroke:#000000;stroke-width:0.200001;stroke-miterlimit:4;stroke-dasharray:none;stroke-opacity:1"
       id="rect884"
       width="190.5"
       height="36.29401"
       x="-2.6655645e-08"
       y="1.1501019e-09" />
    <rect
       style="color:#000000;overflow:visible;fill:#808080;fill-opacity:1;stroke:none;stroke-width:2.64583"
       id="rect927"
       width="26.458334"
       height="13.229167"
       x="-63.586388"
       y="5.1253538" />
    <rect
       style="color:#000000;overflow:visible;fill:#000000;fill-opacity:1;stroke:none;stroke-width:2.64583"
       id="rect929"
       width="26.458334"
       height="13.229167"
       x="-37.128052"
       y="-8.1038132" />
    <rect
       style="color:#000000;overflow:visible;fill:#000000;fill-opacity:1;stroke:none;stroke-width:2.64583"
       id="rect931"
       width="26.458334"
       height="13.229167"
       x="-63.586388"
       y="-8.1038132" />
    <rect
       style="color:#000000;overflow:visible;fill:#ffffaa;fill-opacity:1;stroke:none;stroke-width:2.64584"
       id="rect995"
       width="26.458334"
       height="13.229167"
       x="-63.586388"
       y="44.812855" />
    <rect
       style="color:#000000;overflow:visible;fill:#bb7b4a;fill-opacity:1;stroke:none;stroke-width:2.64584"
       id="rect1013"
       width="26.458334"
       height="13.229167"
       x="-90.044724"
       y="18.354519" />
    <g
       id="g927"
       transform="matrix(1.5207101,0,0,1.5207101,-144.29632,11.135527)"
       style="stroke-width:0.657588"
       inkscape:export-filename="/home/pablo/git/django/purse/static/purse/images/giticon.png"
       inkscape:export-xdpi="96"
       inkscape:export-ydpi="96">
      <circle
         style="color:#000000;overflow:visible;fill:#ffffff;fill-opacity:1;stroke-width:1.73986"
         id="path915"
         cx="62.727722"
         cy="127.54675"
         r="8.6993351" />
      <path
         id="path917"
         style="fill:#000000;stroke-width:0.657588"
         d="m 67.733789,122.35301 -0.456822,0.0853 c -0.251304,0.0471 -0.790948,0.25476 -1.199409,0.46095 -0.740159,0.37363 -0.74636,0.37405 -1.813327,0.22479 -0.831998,-0.11632 -1.32424,-0.1148 -2.209684,0.006 -1.119883,0.15304 -1.148799,0.15002 -1.687234,-0.16175 -0.742268,-0.42978 -1.614197,-0.65587 -1.802474,-0.46767 -0.08051,0.0805 -0.150199,0.6236 -0.160197,1.24747 -0.01541,0.96488 -0.06356,1.18545 -0.380855,1.73995 -0.50805,0.89728 -0.528622,2.18724 -0.179319,3.30212 0.432552,1.26954 1.415526,2.11151 2.79363,2.39262 0.42863,0.0874 0.767495,0.21339 0.752925,0.28009 -0.01457,0.0667 -0.131805,0.35927 -0.260451,0.65009 -0.203332,0.45967 -0.299558,0.53981 -0.737939,0.61391 -0.756962,0.12789 -1.333074,-0.11944 -1.847948,-0.79375 -0.619865,-0.81181 -1.192323,-1.14066 -1.668115,-0.95808 -0.142174,0.0546 -0.06357,0.19918 0.324011,0.5948 0.28154,0.28738 0.645242,0.77484 0.80822,1.08365 0.460142,0.8719 0.830101,1.0807 2.009696,1.1343 l 1.007689,0.0455 v 0.75706 c 0,0.41629 -0.05947,0.86742 -0.131773,1.00253 -0.07863,0.14691 -0.171884,0.21995 -0.336415,0.21807 a 8.0340014,8.0340014 0 0 0 2.607077,0.43512 8.0340014,8.0340014 0 0 0 2.624646,-0.4408 c -0.40766,0.02 -0.42853,-0.47324 -0.469739,-1.84382 -0.04008,-1.33329 -0.103696,-1.83988 -0.272336,-2.15749 -0.245044,-0.46152 -0.287372,-0.42344 0.726054,-0.65939 1.919364,-0.44687 2.873944,-1.75144 2.871142,-3.92482 -0.0034,-0.69291 -0.186206,-1.65839 -0.734322,-2.35025 -0.08399,-0.0519 -0.08483,-0.24501 -0.0016,-0.57309 0.08747,-0.3446 0.07994,-0.715 -0.02481,-1.21956 z" />
    </g>
  </g>
  <g
     inkscape:groupmode="layer"
     id="layer2"
     inkscape:label="text">
    <text
       xml:space="preserve"
       style="color:#000000;font-style:normal;font-variant:normal;font-weight:normal;font-stretch:normal;font-size:10.1044px;line-height:1.25;font-family:sans-serif;-inkscape-font-specification:sans-serif;text-decoration:none;text-decoration-line:none;text-decoration-color:#000000;overflow:visible;fill:#f0800a;fill-opacity:1;stroke:none;stroke-width:0.2;stroke-miterlimit:4;stroke-dasharray:none;stroke-opacity:1;"
       x="5.6523933"
       y="29.908503"
       id="text889"><tspan
         sodipodi:role="line"
         id="tspan887"
         x="5.6523933"
         y="29.908503"
         style="font-style:normal;font-variant:normal;font-weight:normal;font-stretch:normal;font-family:sans-serif;-inkscape-font-specification:sans-serif;fill:#f0800a;fill-opacity:1;stroke:none;stroke-width:0.2;">Login  - Sign up - Restore password </tspan><tspan
         sodipodi:role="line"
         x="5.6523933"
         y="42.539001"
         style="font-style:normal;font-variant:normal;font-weight:normal;font-stretch:normal;font-family:sans-serif;-inkscape-font-specification:sans-serif;fill:#f0800a;fill-opacity:1;stroke:none;stroke-width:0.2;"
         id="tspan891" /></text>
    <circle
       style="color:#000000;overflow:visible;fill:#f0f00a;fill-opacity:1;stroke:none;stroke-width:0.2;stroke-miterlimit:4;stroke-dasharray:none;stroke-opacity:1"
       id="path897"
       cx="-55.159882"
       cy="100.51421"
       r="26.477457" />
    <g
       id="g972"
       inkscape:export-filename="/home/pablo/git/django/purse/static/purse/images/purseicon.png"
       inkscape:export-xdpi="96.901657"
       inkscape:export-ydpi="96.901657">
      <ellipse
         style="color:#000000;overflow:visible;fill:#f2f20d;fill-opacity:1;stroke:none;stroke-width:0.9;stroke-miterlimit:4;stroke-dasharray:none;stroke-opacity:1"
         id="path899"
         cx="-54.164749"
         cy="162.12991"
         rx="22.43112"
         ry="13.863194" />
      <ellipse
         style="color:#000000;overflow:visible;fill:#a35b29;fill-opacity:1;stroke:none;stroke-width:0.200001;stroke-miterlimit:4;stroke-dasharray:none;stroke-opacity:1"
         id="ellipse933"
         cx="-54.164749"
         cy="162.12991"
         rx="18.889275"
         ry="14.313192" />
      <ellipse
         style="color:#000000;overflow:visible;fill:none;fill-opacity:1;stroke:#000000;stroke-width:0.9;stroke-miterlimit:4;stroke-dasharray:none;stroke-opacity:1"
         id="ellipse964"
         cx="-54.164749"
         cy="162.12991"
         rx="22.43112"
         ry="13.863194" />
      <circle
         style="color:#000000;overflow:visible;fill:#808080;fill-opacity:1;stroke:none;stroke-width:0.2;stroke-miterlimit:4;stroke-dasharray:none;stroke-opacity:1"
         id="path901"
         cx="-56.810585"
         cy="146.53345"
         r="4.9524651" />
      <circle
         style="color:#000000;overflow:visible;fill:#404040;fill-opacity:1;stroke:none;stroke-width:0.2;stroke-miterlimit:4;stroke-dasharray:none;stroke-opacity:1"
         id="circle905"
         cx="-50.989746"
         cy="146.53345"
         r="4.9524651" />
      <path
         id="rect935"
         style="color:#000000;overflow:visible;fill:#808080;fill-opacity:1;stroke:#522e14;stroke-width:0.899998;stroke-miterlimit:4;stroke-dasharray:none;stroke-opacity:1"
         d="m -54.164722,152.59367 -9.978656,9.65903 h 2.861097 v 7.48019 h 7.117559 7.11756 v -7.48019 h 2.861096 l -3.774104,-3.65339 v -4.93684 h -3.145086 v 1.8926 z" />
    </g>
    <g
       id="g993"
       transform="translate(11.309871)">
      <text
         xml:space="preserve"
         style="color:#000000;font-style:normal;font-variant:normal;font-weight:normal;font-stretch:normal;font-size:10.1044px;line-height:1.25;font-family:sans-serif;-inkscape-font-specification:sans-serif;text-align:center;text-decoration:none;text-decoration-line:none;text-decoration-color:#000000;text-anchor:middle;overflow:visible;fill:#f0f00a;fill-opacity:1;stroke:none;stroke-width:0.2;stroke-miterlimit:4;stroke-dasharray:none;stroke-opacity:1;"
         x="95.023048"
         y="13.882554"
         id="text895"><tspan
           sodipodi:role="line"
           id="tspan893"
           x="95.023048"
           y="13.882554"
           style="text-align:center;text-anchor:middle;fill:#f0f00a;fill-opacity:1;stroke-width:0.2;">Homebank online-purse</tspan></text>
      <use
         x="0"
         y="0"
         xlink:href="#g972"
         id="use988"
         transform="matrix(0.37015497,0,0,0.37014907,41.49719,-47.763197)"
         width="100%"
         height="100%"
         style="stroke-width:2.70159" />
    </g>
  </g>
</svg>
